{
.appVersion = "3151";
.formatVersion = 3;
customParameters = (
{
name = vendorID;
value = ADBO;
},
{
name = panose;
value = (
2,
11,
2,
0,
0,
0,
0,
0,
0,
0
);
},
{
name = unicodeRanges;
value = (
0,
1,
7,
29,
36,
42,
43,
44,
45,
48,
49,
50,
51,
52,
54,
55,
57,
59,
61,
65,
66,
68
);
},
{
name = codePageRanges;
value = (
"1252",
"1250",
"1251",
"1258",
"932",
"936",
"bit 29",
"bit 30"
);
},
{
name = fsType;
value = (
);
}
);
date = "2021-04-29 08:43:11 +0000";
familyName = "Yaku Han JP";
featurePrefixes = (
{
automatic = 1;
code = "languagesystem DFLT dflt;
";
name = Languagesystems;
}
);
features = (
{
automatic = 1;
code = "feature vert;
feature vrt2;
";
tag = aalt;
},
{
code = "sub comma-han by comma-han.vert;
sub period-han by period-han.vert;
sub colon.full by colon.full.vert;
sub blacklenticularbracketleft by blacklenticularbracketleft.vert;
sub blacklenticularbracketright by blacklenticularbracketright.vert;
sub cornerbracketleft by cornerbracketleft.vert;
sub cornerbracketright by cornerbracketright.vert;
sub dblanglebracketleft by dblanglebracketleft.vert;
sub dblanglebracketright by dblanglebracketright.vert;
sub tortoiseshellbracketleft by tortoiseshellbracketleft.vert;
sub tortoiseshellbracketright by tortoiseshellbracketright.vert;
sub whitecornerbracketleft by whitecornerbracketleft.vert;
sub whitecornerbracketright by whitecornerbracketright.vert;
sub whitelenticularbracketleft by whitelenticularbracketleft.vert;
sub whitelenticularbracketright by whitelenticularbracketright.vert;
sub braceleft.full by braceleft.full.vert;
sub braceright.full by braceright.full.vert;
sub bracketleft.full by bracketleft.full.vert;
sub bracketright.full by bracketright.full.vert;
sub parenleft.full by parenleft.full.vert;
sub parenright.full by parenright.full.vert;
sub angleLeft by anglebracketleft.vert;
sub angleRight by anglebracketright.vert;";
tag = vert;
},
{
automatic = 1;
code = "sub comma-han by comma-han.vert;
sub period-han by period-han.vert;

glyphs = (
{
glyphname = .notdef;
lastChange = "2023-08-27 12:29:59 +0000";
layers = (
{
layerId = m01;
shapes = (
{
closed = 1;
nodes = (
(900,880,l),
(100,880,l),
(100,-120,l),
(900,-120,l)
);
},
{
closed = 1;
nodes = (
(818,830,l),
(500,421,l),
(182,830,l)
);
},
{
closed = 1;
nodes = (
(850,-29,l),
(532,380,l),
(850,789,l)
);
},
{
closed = 1;
nodes = (
(818,-70,l),
(182,-70,l),
(500,339,l)
);
},
{
closed = 1;
nodes = (
(150,-29,l),
(150,789,l),
(468,380,l)
);
}
);
vertWidth = 1000;
width = 1000;
}
);
note = ".notdef";
},
{
glyphname = "comma-han";
lastChange = "2023-08-27 12:29:59 +0000";
layers = (
{
layerId = m01;
shapes = (
{
closed = 1;
nodes = (
(337,54,o),
(262,134,o),
(180,213,o),
(144,242,q),
(40,152,l),
(75,122,o),
(151,47,o),
(225,-31,o),
(255,-69,q),
(362,23,l)
);
}
);
vertWidth = 1000;
width = 1000;
}
);
note = uni3001;
unicode = 12289;
},
{
glyphname = "comma-han.vert";
lastChange = "2023-08-27 12:29:59 +0000";
layers = (
{
layerId = m01;
shapes = (
{
closed = 1;
nodes = (
(931,654,o),
(857,733,o),
(776,809,o),
(742,837,q),
(639,750,l),
(690,705,o),
(806,588,o),
(850,533,q),
(956,623,l)
);
}
);
vertWidth = 1000;
width = 1000;
}
);
note = uniFE11;
unicode = 65041;
},
{
glyphname = "period-han";
lastChange = "2023-08-27 12:29:59 +0000";
layers = (
{
layerId = m01;
shapes = (
{
closed = 1;
nodes = (
(75,204,o),
(32,131,o),
(32,86,qs),
(32,42,o),
(75,-32,o),
(149,-76,o),
(193,-76,qs),
(239,-76,o),
(311,-32,o),
(355,42,o),
(355,86,qs),
(355,131,o),
(311,204,o),
(239,248,o),
(193,248,qs),
(149,248,o)
);
},
{
closed = 1;
nodes = (
(129,20,o),
(104,61,o),
(104,86,qs),
(104,111,o),
(129,152,o),
(169,176,o),
(194,176,qs),
(218,176,o),
(259,152,o),
(283,111,o),
(283,86,qs),
(283,49,o),
(231,-4,o),
(194,-4,qs),
(169,-4,o)
);
}
);
vertWidth = 1000;
width = 1000;
}
);
note = uni3002;
unicode = 12290;
},
{
glyphname = "period-han.vert";
lastChange = "2023-08-27 12:29:59 +0000";
layers = (
{
layerId = m01;
shapes = (
{
closed = 1;
nodes = (
(682,782,o),
(638,709,o),
(638,666,qs),
(638,622,o),
(682,550,o),
(754,507,o),
(797,507,qs),
(842,507,o),
(913,550,o),
(956,622,o),
(956,666,qs),
(956,710,o),
(913,782,o),
(842,825,o),
(797,825,qs),
(754,825,o)
);
},
{
closed = 1;
nodes = (
(733,601,o),
(709,642,o),
(709,666,qs),
(709,690,o),
(733,730,o),
(774,753,o),
(797,753,qs),
(822,753,o),
(861,729,o),
(885,690,o),
(885,666,qs),
(885,629,o),
(834,578,o),
(797,578,qs),
(773,578,o)
);
}
);
vertWidth = 1000;
width = 1000;
}
);
note = uniFE12;
unicode = 65042;
},
{
glyphname = hyphenationpoint;
lastChange = "2023-08-27 12:29:59 +0000";
layers = (
{
layerId = m01;
shapes = (
{
closed = 1;
nodes = (
(407,473,o),
(372,416,o),
(372,380,qs),
(372,345,o),
(407,287,o),
(465,252,o),
(500,252,qs),
(536,252,o),
(593,287,o),
(628,345,o),
(628,380,qs),
(628,416,o),
(593,473,o),
(536,508,o),
(500,508,qs),
(465,508,o)
);
}
);
vertWidth = 1000;
width = 1000;
}
);
note = uni2027;
unicode = (8231,12539);
},
{
glyphname = colon.full;
lastChange = "2023-08-27 12:29:59 +0000";
layers = (
{
layerId = m01;
shapes = (
{
closed = 1;
nodes = (
(595,570,o),
(595,609,qs),
(595,651,o),
(540,704,o),
(500,704,qs),
(460,704,o),
(405,651,o),
(405,609,qs),
(405,570,o),
(460,516,o),
(500,516,qs),
(540,516,o)
);
},
{
closed = 1;
nodes = (
(595,93,o),
(595,132,qs),
(595,174,o),
(540,227,o),
(500,227,qs),
(460,227,o),
(405,174,o),
(405,132,qs),
(405,93,o),
(460,39,o),
(500,39,qs),
(540,39,o)
);
}
);
vertWidth = 1000;
width = 1000;
}
);
note = uniFF1A;
unicode = 65306;
},
{
glyphname = exclam.full;
lastChange = "2023-08-27 12:29:59 +0000";
layers = (
{
layerId = m01;
shapes = (
{
closed = 1;
nodes = (
(578,599,l),
(583,748,l),
(417,748,l),
(422,599,l),
(449,257,l),
(551,257,l)
);
},
{
closed = 1;
nodes = (
(588,41,o),
(588,79,qs),
(588,118,o),
(538,168,o),
(500,168,qs),
(462,168,o),
(412,118,o),
(412,79,qs),
(412,41,o),
(462,-9,o),
(500,-9,qs),
(538,-9,o)
);
}
);
vertWidth = 1000;
width = 1000;
}
);
note = uniFF01;
unicode = 65281;
},
{
glyphname = question.full;
lastChange = "2023-08-27 12:29:59 +0000";
layers = (
{
layerId = m01;
shapes = (
{
closed = 1;
nodes = (
(550,292,o),
(576,344,o),
(622,386,o),
(676,425,o),
(725,468,o),
(756,523,o),
(756,560,qs),
(756,627,o),
(691,716,o),
(578,760,o),
(505,760,qs),
(426,760,o),
(295,693,o),
(247,638,q),
(329,562,l),
(366,601,o),
(442,641,o),
(488,641,qs),
(528,641,o),
(585,619,o),
(615,577,o),
(615,547,qs),
(615,523,o),
(585,483,o),
(538,445,o),
(485,405,o),
(442,357,o),
(419,297,o),
(424,257,q),
(553,257,l)
);
},
{
closed = 1;
nodes = (
(577,41,o),
(577,79,qs),
(577,118,o),
(527,168,o),
(489,168,qs),
(451,168,o),
(401,118,o),
(401,79,qs),
(401,41,o),
(451,-9,o),
(489,-9,qs),
(527,-9,o)
);
}
);
vertWidth = 1000;
width = 1000;
}
);
note = uniFF1F;
unicode = 65311;
},
{
glyphname = semicolon.full;
lastChange = "2023-08-27 12:29:59 +0000";
layers = (
{
layerId = m01;
shapes = (
{
closed = 1;
nodes = (
(614,37,o),
(614,130,qs),
(614,200,o),
(558,280,o),
(505,280,qs),
(466,280,o),
(408,233,o),
(408,190,qs),
(408,146,o),
(466,99,o),
(503,99,qs),
(520,99,o),
(550,111,o),
(563,122,q),
(507,211,l),
(515,105,l),
(515,55,o),
(449,-24,o),
(384,-49,q),
(416,-130,l),
(512,-98,o)
);
},
{
closed = 1;
nodes = (
(595,570,o),
(595,609,qs),
(595,651,o),
(540,704,o),
(500,704,qs),
(460,704,o),
(405,651,o),
(405,609,qs),
(405,570,o),
(460,516,o),
(500,516,qs),
(540,516,o)
);
}
);
vertWidth = 1000;
width = 1000;
}
);
note = uniFF1B;
unicode = 65307;
},
{
glyphname = colon.full.vert;
lastChange = "2023-08-27 12:29:59 +0000";
layers = (
{
layerId = m01;
shapes = (
{
closed = 1;
nodes = (
(356,331,o),
(356,372,qs),
(356,413,o),
(301,466,o),
(261,466,qs),
(222,466,o),
(166,413,o),
(166,372,qs),
(166,331,o),
(222,277,o),
(261,277,qs),
(301,277,o)
);
},
{
closed = 1;
nodes = (
(834,331,o),
(834,372,qs),
(834,413,o),
(778,466,o),
(739,466,qs),
(699,466,o),
(644,413,o),
(644,372,qs),
(644,331,o),
(699,277,o),
(739,277,qs),
(778,277,o)
);
}
);
vertWidth = 1000;
width = 1000;
}
);
note = glyph17776;
},
{
glyphname = angleLeft;
lastChange = "2023-08-27 12:29:59 +0000";
layers = (
{
layerId = m01;
shapes = (
{
closed = 1;
nodes = (
(946,809,l),
(847,852,l),
(560,380,l),
(847,-92,l),
(946,-49,l),
(685,380,l)
);
}
);
vertWidth = 1000;
width = 1000;
}
);
note = uni2329;
unicode = (9001,12296);
},
{
glyphname = angleRight;
lastChange = "2023-08-27 12:29:59 +0000";
layers = (
{
layerId = m01;
shapes = (
{
closed = 1;
nodes = (
(440,380,l),
(153,852,l),
(54,809,l),
(315,380,l),
(54,-49,l),
(153,-92,l)
);
}
);
vertWidth = 1000;
width = 1000;
}
);
note = uni3009;
unicode = (9002,12297);
},
{
glyphname = blacklenticularbracketleft;
lastChange = "2023-08-27 12:29:59 +0000";
layers = (
{
layerId = m01;
shapes = (
{
closed = 1;
nodes = (
(660,852,l),
(660,-92,l),
(972,-92,l),
(972,-87,l),
(918,-40,o),
(828,100,o),
(774,278,o),
(774,380,qs),
(774,483,o),
(828,660,o),
(918,801,o),
(972,847,q),
(972,852,l)
);
}
);
vertWidth = 1000;
width = 1000;
}
);
note = uni3010;
unicode = 12304;
},
{
glyphname = blacklenticularbracketright;
lastChange = "2023-08-27 12:29:59 +0000";
layers = (
{
layerId = m01;
shapes = (
{
closed = 1;
nodes = (
(28,852,l),
(28,847,l),
(83,801,o),
(172,660,o),
(226,483,o),
(226,380,qs),
(226,278,o),
(172,100,o),
(83,-40,o),
(28,-87,q),
(28,-92,l),
(340,-92,l),
(340,852,l)
);
}
);
vertWidth = 1000;
width = 1000;
}
);
note = uni3011;
unicode = 12305;
},
{
glyphname = braceleft.full;
lastChange = "2023-08-27 12:29:59 +0000";
layers = (
{
layerId = m01;
shapes = (
{
closed = 1;
nodes = (
(971,-19,l),
(941,-19,ls),
(903,-19,o),
(877,17,o),
(877,66,qs),
(877,112,o),
(882,199,o),
(882,251,qs),
(882,312,o),
(844,368,o),
(803,378,q),
(803,382,l),
(844,393,o),
(882,449,o),
(882,509,qs),
(882,561,o),
(877,650,o),
(877,695,qs),
(877,744,o),
(903,780,o),
(941,780,qs),
(971,780,l),
(971,856,l),
(907,856,ls),
(837,856,o),
(769,790,o),
(769,701,qs),
(769,662,o),
(774,601,o),
(779,542,o),
(779,505,qs),
(779,486,o),
(762,448,o),
(721,423,o),
(685,422,q),
(685,339,l),
(721,338,o),
(762,313,o),
(779,276,o),
(779,255,qs),
(779,220,o),
(774,160,o),
(769,99,o),
(769,59,qs),
(769,-29,o),
(837,-96,o),
(907,-96,qs),
(971,-96,l)
);
}
);
vertWidth = 1000;
width = 1000;
}
);
note = uniFF5B;
unicode = 65371;
},
{
glyphname = braceright.full;
lastChange = "2023-08-27 12:29:59 +0000";
layers = (
{
layerId = m01;
shapes = (
{
closed = 1;
nodes = (
(29,-19,l),
(59,-19,ls),
(98,-19,o),
(123,17,o),
(123,66,qs),
(123,112,o),
(118,199,o),
(118,251,qs),
(118,312,o),
(156,368,o),
(197,378,q),
(197,382,l),
(156,393,o),
(118,449,o),
(118,509,qs),
(118,561,o),
(123,650,o),
(123,695,qs),
(123,744,o),
(98,780,o),
(59,780,qs),
(29,780,l),
(29,856,l),
(93,856,ls),
(163,856,o),
(231,790,o),
(231,701,qs),
(231,662,o),
(226,601,o),
(221,542,o),
(221,505,qs),
(221,486,o),
(238,448,o),
(280,423,o),
(315,422,q),
(315,339,l),
(280,338,o),
(238,313,o),
(221,276,o),
(221,255,qs),
(221,220,o),
(226,160,o),
(231,99,o),
(231,59,qs),
(231,-29,o),
(163,-96,o),
(93,-96,qs),
(29,-96,l)
);
}
);
vertWidth = 1000;
width = 1000;
}
);
note = uniFF5D;
unicode = 65373;
},
{
glyphname = cornerbracketleft;
lastChange = "2023-08-27 12:29:59 +0000";
layers = (
{
layerId = m01;
shapes = (
{
closed = 1;
nodes = (
(759,213,l),
(759,744,l),
(972,744,l),
(972,852,l),
(640,852,l),
(640,213,l)
);
}
);
vertWidth = 1000;
width = 1000;
}
);
note = uni300C;
unicode = 12300;
},
{
glyphname = cornerbracketright;
lastChange = "2023-08-27 12:29:59 +0000";
layers = (
{
layerId = m01;
shapes = (
{
closed = 1;
nodes = (
(241,547,l),
(241,16,l),
(28,16,l),
(28,-92,l),
(360,-92,l),
(360,547,l)
);
}
);
vertWidth = 1000;
width = 1000;
}
);
note = uni300D;
unicode = 12301;
},
{
glyphname = dblanglebracketleft;
lastChange = "2023-08-27 12:29:59 +0000";
layers = (
{
layerId = m01;
shapes = (
{
closed = 1;
nodes = (
(800,826,l),
(717,852,l),
(518,380,l),
(717,-92,l),
(800,-66,l),
(611,380,l)
);
},
{
closed = 1;
nodes = (
(973,826,l),
(889,852,l),
(691,380,l),
(889,-92,l),
(973,-66,l),
(783,380,l)
);
}
);
vertWidth = 1000;
width = 1000;
}
);
note = uni300A;
unicode = 12298;
},
{
glyphname = dblanglebracketright;
lastChange = "2023-08-27 12:29:59 +0000";
layers = (
{
layerId = m01;
shapes = (
{
closed = 1;
nodes = (
(482,380,l),
(283,852,l),
(200,826,l),
(389,380,l),
(200,-66,l),
(283,-92,l)
);
},
{
closed = 1;
nodes = (
(309,380,l),
(111,852,l),
(27,826,l),
(217,380,l),
(27,-66,l),
(111,-92,l)
);
}
);
vertWidth = 1000;
width = 1000;
}
);
note = uni300B;
unicode = 12299;
},
{
glyphname = tortoiseshellbracketleft;
lastChange = "2023-08-27 12:29:59 +0000";
layers = (
{
layerId = m01;
shapes = (
{
closed = 1;
nodes = (
(975,-25,l),
(803,85,l),
(803,675,l),
(975,785,l),
(927,864,l),
(693,714,l),
(693,46,l),
(927,-104,l)
);
}
);
vertWidth = 1000;
width = 1000;
}
);
note = uni3014;
unicode = 12308;
},
{
glyphname = tortoiseshellbracketright;
lastChange = "2023-08-27 12:29:59 +0000";
layers = (
{
layerId = m01;
shapes = (
{
closed = 1;
nodes = (
(25,-25,l),
(197,85,l),
(197,675,l),
(25,785,l),
(73,864,l),
(307,714,l),
(307,46,l),
(73,-104,l)
);
}
);
vertWidth = 1000;
width = 1000;
}
);
note = uni3015;
unicode = 12309;
},
{
glyphname = whitecornerbracketleft;
lastChange = "2023-08-27 12:29:59 +0000";
layers = (
{
layerId = m01;
shapes = (
{
closed = 1;
nodes = (
(972,852,l),
(600,852,l),
(600,191,l),
(792,191,l),
(792,674,l),
(972,674,l)
);
},
{
closed = 1;
nodes = (
(928,718,l),
(749,718,l),
(749,235,l),
(644,235,l),
(644,808,l),
(928,808,l)
);
}
);
vertWidth = 1000;
width = 1000;
}
);
note = uni300E;
unicode = 12302;
},
{
glyphname = whitecornerbracketright;
lastChange = "2023-08-27 12:29:59 +0000";
layers = (
{
layerId = m01;
shapes = (
{
closed = 1;
nodes = (
(28,-92,l),
(400,-92,l),
(400,569,l),
(208,569,l),
(208,86,l),
(28,86,l)
);
},
{
closed = 1;
nodes = (
(72,42,l),
(251,42,l),
(251,525,l),
(356,525,l),
(356,-48,l),
(72,-48,l)
);
}
);
vertWidth = 1000;
width = 1000;
}
);
note = uni300F;
unicode = 12303;
},
{
glyphname = whitelenticularbracketleft;
lastChange = "2023-08-27 12:29:59 +0000";
layers = (
{
layerId = m01;
shapes = (
{
closed = 1;
nodes = (
(893,-38,o),
(775,90,o),
(709,268,o),
(709,380,qs),
(709,492,o),
(775,670,o),
(893,798,o),
(972,835,q),
(972,852,l),
(629,852,l),
(629,-92,l),
(972,-92,l),
(972,-75,l)
);
},
{
closed = 1;
nodes = (
(654,827,l),
(906,827,l),
(870,805,o),
(793,731,o),
(726,623,o),
(684,476,o),
(684,380,qs),
(684,284,o),
(726,137,o),
(793,29,o),
(870,-44,o),
(906,-67,q),
(654,-67,l)
);
}
);
vertWidth = 1000;
width = 1000;
}
);
note = uni3016;
unicode = 12310;
},
{
glyphname = whitelenticularbracketright;
lastChange = "2023-08-27 12:29:59 +0000";
layers = (
{
layerId = m01;
shapes = (
{
closed = 1;
nodes = (
(371,-92,l),
(371,852,l),
(28,852,l),
(28,835,l),
(107,798,o),
(225,670,o),
(291,492,o),
(291,380,qs),
(291,268,o),
(225,90,o),
(107,-38,o),
(28,-75,q),
(28,-92,l)
);
},
{
closed = 1;
nodes = (
(130,-45,o),
(207,29,o),
(274,137,o),
(316,284,o),
(316,380,qs),
(316,476,o),
(274,623,o),
(207,731,o),
(130,804,o),
(94,827,q),
(346,827,l),
(346,-67,l),
(94,-67,l)
);
}
);
vertWidth = 1000;
width = 1000;
}
);
note = uni3017;
unicode = 12311;
},
{
glyphname = anglebracketleft.vert;
lastChange = "2023-08-27 12:29:59 +0000";
layers = (
{
layerId = m01;
shapes = (
{
closed = 1;
nodes = (
(929,-66,l),
(972,33,l),
(500,320,l),
(28,33,l),
(71,-66,l),
(500,195,l)
);
}
);
vertWidth = 1000;
width = 1000;
}
);
note = uniFE3F;
unicode = 65087;
},
{
glyphname = anglebracketright.vert;
lastChange = "2023-08-27 12:29:59 +0000";
layers = (
{
layerId = m01;
shapes = (
{
closed = 1;
nodes = (
(71,826,l),
(28,727,l),
(500,440,l),
(972,727,l),
(929,826,l),
(500,565,l)
);
}
);
vertWidth = 1000;
width = 1000;
}
);
note = uniFE40;
unicode = 65088;
},
{
glyphname = blacklenticularbracketleft.vert;
lastChange = "2023-08-27 12:29:59 +0000";
layers = (
{
layerId = m01;
shapes = (
{
closed = 1;
nodes = (
(972,220,l),
(28,220,l),
(28,-92,l),
(33,-92,l),
(80,-37,o),
(220,52,o),
(398,106,o),
(500,106,qs),
(603,106,o),
(780,52,o),
(921,-37,o),
(967,-92,q),
(972,-92,l)
);
}
);
vertWidth = 1000;
width = 1000;
}
);
note = uniFE3B;
unicode = 65083;
},
{
glyphname = blacklenticularbracketright.vert;
lastChange = "2023-08-27 12:29:59 +0000";
layers = (
{
layerId = m01;
shapes = (
{
closed = 1;
nodes = (
(972,852,l),
(967,852,l),
(921,798,o),
(780,708,o),
(603,654,o),
(500,654,qs),
(398,654,o),
(220,708,o),
(80,798,o),
(33,852,q),
(28,852,l),
(28,540,l),
(972,540,l)
);
}
);
vertWidth = 1000;
width = 1000;
}
);
note = uniFE3C;
unicode = 65084;
},
{
glyphname = bracketleft.full;
lastChange = "2023-08-27 12:29:59 +0000";
layers = (
{
layerId = m01;
shapes = (
{
closed = 1;
nodes = (
(972,-92,l),
(972,-13,l),
(823,-13,l),
(823,773,l),
(972,773,l),
(972,852,l),
(713,852,l),
(713,-92,l)
);
}
);
vertWidth = 1000;
width = 1000;
}
);
note = uniFF3B;
unicode = 65339;
},
{
glyphname = bracketright.full;
lastChange = "2023-08-27 12:29:59 +0000";
layers = (
{
layerId = m01;
shapes = (
{
closed = 1;
nodes = (
(28,-92,l),
(28,-13,l),
(177,-13,l),
(177,773,l),
(28,773,l),
(28,852,l),
(287,852,l),
(287,-92,l)
);
}
);
vertWidth = 1000;
width = 1000;
}
);
note = uniFF3D;
unicode = 65341;
},
{
glyphname = cornerbracketleft.vert;
lastChange = "2023-08-27 12:29:59 +0000";
layers = (
{
layerId = m01;
shapes = (
{
closed = 1;
nodes = (
(282,127,l),
(857,127,l),
(857,-92,l),
(975,-92,l),
(975,240,l),
(282,240,l)
);
}
);
vertWidth = 1000;
width = 1000;
}
);
note = uniFE41;
unicode = 65089;
},
{
glyphname = cornerbracketright.vert;
lastChange = "2023-08-27 12:29:59 +0000";
layers = (
{
layerId = m01;
shapes = (
{
closed = 1;
nodes = (
(718,618,l),
(143,618,l),
(143,836,l),
(25,836,l),
(25,505,l),
(718,505,l)
);
}
);
vertWidth = 1000;
width = 1000;
}
);
note = uniFE42;
unicode = 65090;
},
{
glyphname = dblanglebracketleft.vert;
lastChange = "2023-08-27 12:29:59 +0000";
layers = (
{
layerId = m01;
shapes = (
{
closed = 1;
nodes = (
(946,80,l),
(972,163,l),
(500,362,l),
(28,163,l),
(54,80,l),
(500,269,l)
);
},
{
closed = 1;
nodes = (
(946,-93,l),
(972,-9,l),
(500,189,l),
(28,-9,l),
(54,-93,l),
(500,97,l)
);
}
);
vertWidth = 1000;
width = 1000;
}
);
note = uniFE3D;
unicode = 65085;
},
{
glyphname = dblanglebracketright.vert;
lastChange = "2023-08-27 12:29:59 +0000";
layers = (
{
layerId = m01;
shapes = (
{
closed = 1;
nodes = (
(54,680,l),
(28,597,l),
(500,398,l),
(972,597,l),
(946,680,l),
(500,491,l)
);
},
{
closed = 1;
nodes = (
(54,853,l),
(28,769,l),
(500,571,l),
(972,769,l),
(946,853,l),
(500,663,l)
);
}
);
vertWidth = 1000;
width = 1000;
}
);
note = uniFE3E;
unicode = 65086;
},
{
glyphname = parenleft.full;
lastChange = "2023-08-27 12:29:59 +0000";
layers = (
{
layerId = m01;
shapes = (
{
closed = 1;
nodes = (
(717,95,o),
(807,-47,o),
(860,-100,q),
(955,-58,l),
(905,-4,o),
(824,126,o),
(776,285,o),
(776,380,qs),
(776,476,o),
(824,634,o),
(905,765,o),
(955,818,q),
(860,860,l),
(807,807,o),
(717,665,o),
(663,487,o),
(663,380,qs),
(663,273,o)
);
}
);
vertWidth = 1000;
width = 1000;
}
);
note = uniFF08;
unicode = 65288;
},
{
glyphname = parenright.full;
lastChange = "2023-08-27 12:29:59 +0000";
layers = (
{
layerId = m01;
shapes = (
{
closed = 1;
nodes = (
(283,665,o),
(194,807,o),
(140,860,q),
(45,818,l),
(95,765,o),
(176,634,o),
(224,476,o),
(224,380,qs),
(224,285,o),
(176,126,o),
(95,-4,o),
(45,-58,q),
(140,-100,l),
(194,-47,o),
(283,95,o),
(337,273,o),
(337,380,qs),
(337,487,o)
);
}
);
vertWidth = 1000;
width = 1000;
}
);
note = uniFF09;
unicode = 65289;
},
{
glyphname = tortoiseshellbracketleft.vert;
lastChange = "2023-08-27 12:29:59 +0000";
layers = (
{
layerId = m01;
shapes = (
{
closed = 1;
nodes = (
(95,-95,l),
(205,77,l),
(795,77,l),
(905,-95,l),
(984,-47,l),
(834,187,l),
(166,187,l),
(16,-47,l)
);
}
);
vertWidth = 1000;
width = 1000;
}
);
note = uniFE39;
unicode = 65081;
},
{
glyphname = tortoiseshellbracketright.vert;
lastChange = "2023-08-27 12:29:59 +0000";
layers = (
{
layerId = m01;
shapes = (
{
closed = 1;
nodes = (
(95,855,l),
(205,683,l),
(795,683,l),
(905,855,l),
(984,807,l),
(834,573,l),
(166,573,l),
(16,807,l)
);
}
);
vertWidth = 1000;
width = 1000;
}
);
note = uniFE3A;
unicode = 65082;
},
{
glyphname = whitecornerbracketleft.vert;
lastChange = "2023-08-27 12:29:59 +0000";
layers = (
{
layerId = m01;
shapes = (
{
closed = 1;
nodes = (
(972,-92,l),
(972,265,l),
(311,265,l),
(311,87,l),
(784,87,l),
(784,-92,l)
);
},
{
closed = 1;
nodes = (
(828,-48,l),
(828,131,l),
(355,131,l),
(355,221,l),
(928,221,l),
(928,-48,l)
);
}
);
vertWidth = 1000;
width = 1000;
}
);
note = uniFE43;
unicode = 65091;
},
{
glyphname = whitecornerbracketright.vert;
lastChange = "2023-08-27 12:29:59 +0000";
layers = (
{
layerId = m01;
shapes = (
{
closed = 1;
nodes = (
(28,852,l),
(28,495,l),
(689,495,l),
(689,673,l),
(216,673,l),
(216,852,l)
);
},
{
closed = 1;
nodes = (
(172,808,l),
(172,629,l),
(645,629,l),
(645,539,l),
(72,539,l),
(72,808,l)
);
}
);
vertWidth = 1000;
width = 1000;
}
);
note = uniFE44;
unicode = 65092;
},
{
glyphname = whitelenticularbracketleft.vert;
lastChange = "2023-08-27 12:29:59 +0000";
layers = (
{
layerId = m01;
shapes = (
{
closed = 1;
nodes = (
(82,-13,o),
(210,105,o),
(388,171,o),
(500,171,qs),
(612,171,o),
(790,105,o),
(918,-13,o),
(955,-92,q),
(972,-92,l),
(972,251,l),
(28,251,l),
(28,-92,l),
(45,-92,l)
);
},
{
closed = 1;
nodes = (
(947,226,l),
(947,-26,l),
(925,10,o),
(851,87,o),
(743,154,o),
(596,196,o),
(500,196,qs),
(404,196,o),
(257,154,o),
(149,87,o),
(76,10,o),
(53,-26,q),
(53,226,l)
);
}
);
vertWidth = 1000;
width = 1000;
}
);
note = uniFE17;
unicode = 65047;
},
{
glyphname = whitelenticularbracketright.vert;
lastChange = "2023-08-27 12:29:59 +0000";
layers = (
{
layerId = m01;
shapes = (
{
closed = 1;
nodes = (
(28,509,l),
(972,509,l),
(972,852,l),
(955,852,l),
(918,773,o),
(790,655,o),
(612,589,o),
(500,589,qs),
(388,589,o),
(210,655,o),
(82,773,o),
(45,852,q),
(28,852,l)
);
},
{
closed = 1;
nodes = (
(75,750,o),
(149,673,o),
(257,606,o),
(404,564,o),
(500,564,qs),
(596,564,o),
(743,606,o),
(851,673,o),
(924,750,o),
(947,786,q),
(947,534,l),
(53,534,l),
(53,786,l)
);
}
);
vertWidth = 1000;
width = 1000;
}
);
note = uniFE18;
unicode = 65048;
},
{
glyphname = braceleft.full.vert;
lastChange = "2023-08-27 12:29:59 +0000";
layers = (
{
layerId = m01;
shapes = (
{
closed = 1;
nodes = (
(101,-91,l),
(101,-61,ls),
(101,-22,o),
(137,3,o),
(186,3,qs),
(232,3,o),
(319,-2,o),
(371,-2,qs),
(432,-2,o),
(488,36,o),
(498,77,q),
(502,77,l),
(513,36,o),
(569,-2,o),
(629,-2,qs),
(681,-2,o),
(770,3,o),
(815,3,qs),
(864,3,o),
(900,-22,o),
(900,-61,qs),
(900,-91,l),
(976,-91,l),
(976,-27,ls),
(976,43,o),
(910,111,o),
(821,111,qs),
(782,111,o),
(721,106,o),
(662,101,o),
(625,101,qs),
(606,101,o),
(568,118,o),
(543,160,o),
(542,195,q),
(459,195,l),
(458,160,o),
(433,118,o),
(396,101,o),
(375,101,qs),
(340,101,o),
(280,106,o),
(219,111,o),
(179,111,qs),
(91,111,o),
(24,43,o),
(24,-27,qs),
(24,-91,l)
);
}
);
vertWidth = 1000;
width = 1000;
}
);
note = uniFE37;
unicode = 65079;
},
{
glyphname = braceright.full.vert;
lastChange = "2023-08-27 12:29:59 +0000";
layers = (
{
layerId = m01;
shapes = (
{
closed = 1;
nodes = (
(899,851,l),
(899,821,ls),
(899,783,o),
(863,757,o),
(814,757,qs),
(768,757,o),
(681,762,o),
(629,762,qs),
(569,762,o),
(512,724,o),
(502,683,q),
(498,683,l),
(488,724,o),
(431,762,o),
(371,762,qs),
(319,762,o),
(231,757,o),
(185,757,qs),
(136,757,o),
(100,783,o),
(100,821,qs),
(100,851,l),
(24,851,l),
(24,787,ls),
(24,717,o),
(90,649,o),
(179,649,qs),
(219,649,o),
(279,654,o),
(339,659,o),
(375,659,qs),
(395,659,o),
(432,642,o),
(457,601,o),
(458,565,q),
(541,565,l),
(542,601,o),
(567,642,o),
(605,659,o),
(625,659,qs),
(661,659,o),
(720,654,o),
(781,649,o),
(821,649,qs),
(909,649,o),
(976,717,o),
(976,787,qs),
(976,851,l)
);
}
);
vertWidth = 1000;
width = 1000;
}
);
note = uniFE38;
unicode = 65080;
},
{
glyphname = bracketleft.full.vert;
lastChange = "2023-08-27 12:29:59 +0000";
layers = (
{
layerId = m01;
shapes = (
{
closed = 1;
nodes = (
(28,-92,l),
(107,-92,l),
(107,57,l),
(893,57,l),
(893,-92,l),
(972,-92,l),
(972,167,l),
(28,167,l)
);
}
);
vertWidth = 1000;
width = 1000;
}
);
note = uniFE47;
unicode = 65095;
},
{
glyphname = bracketright.full.vert;
lastChange = "2023-08-27 12:29:59 +0000";
layers = (
{
layerId = m01;
shapes = (
{
closed = 1;
nodes = (
(28,852,l),
(107,852,l),
(107,703,l),
(893,703,l),
(893,852,l),
(972,852,l),
(972,593,l),
(28,593,l)
);
}
);
vertWidth = 1000;
width = 1000;
}
);
note = uniFE48;
unicode = 65096;
},
{
glyphname = parenleft.full.vert;
lastChange = "2023-08-27 12:29:59 +0000";
layers = (
{
layerId = m01;
shapes = (
{
closed = 1;
nodes = (
(215,163,o),
(73,74,o),
(20,20,q),
(62,-75,l),
(116,-25,o),
(246,56,o),
(405,104,o),
(500,104,qs),
(596,104,o),
(754,56,o),
(885,-25,o),
(938,-75,q),
(980,20,l),
(927,74,o),
(785,163,o),
(607,217,o),
(500,217,qs),
(393,217,o)
);
}
);
vertWidth = 1000;
width = 1000;
}
);
note = uniFE35;
unicode = 65077;
},
{
glyphname = parenright.full.vert;
lastChange = "2023-08-27 12:29:59 +0000";
layers = (
{
layerId = m01;
shapes = (
{
closed = 1;
nodes = (
(785,597,o),
(927,687,o),
(980,740,q),
(938,835,l),
(885,785,o),
(754,704,o),
(596,656,o),
(500,656,qs),
(405,656,o),
(246,704,o),
(116,785,o),
(62,835,q),
(20,740,l),
(73,687,o),
(215,597,o),
(393,543,o),
(500,543,qs),
(607,543,o)
);
}
